<svg width="404.28125px" height="124.39999999999999px" xmlns="http://www.w3.org/2000/svg" viewBox="47.859375 12.800000000000004 404.28125 124.39999999999999" style="background: none;" preserveAspectRatio="xMidYMid"><defs><filter id="editing-hover" x="-100%" y="-100%" width="300%" height="300%"><feFlood flood-color="#052b4a" result="flood"></feFlood><feComposite operator="in" in2="SourceAlpha" in="flood" result="shadow"></feComposite><feOffset dx="-1.2" dy="-1.3" in="SourceGraphic" result="offset-1"></feOffset><feOffset dx="1.2" dy="1.3" in="shadow" result="offset-2"></feOffset><feMerge><feMergeNode in="offset-2"></feMergeNode><feMergeNode in="offset-1"></feMergeNode></feMerge></filter></defs><g filter="url(#editing-hover)"><g transform="translate(102.21998357772827, 104.15000534057617)"><path d="M26.18 0L11.71-22.08L8.64-17.22L8.64 0L5.06 0L5.06-44.86L8.64-44.86L8.64-23.49L22.98-44.86L27.14-44.86L14.02-25.47L30.46 0L26.18 0ZM54.08-2.24L54.08-2.24Q51.78-0.77 48.83 0L48.83 0L48.83 0Q45.89 0.77 42.94 0.77L42.94 0.77L42.94 0.77Q38.21 0.77 35.42-1.57L35.42-1.57L35.42-1.57Q32.64-3.90 32.64-8.58L32.64-8.58L32.64-21.70L32.64-21.70Q32.64-26.88 35.87-29.76L35.87-29.76L35.87-29.76Q39.10-32.64 44.42-32.64L44.42-32.64L44.42-32.64Q49.73-32.64 52.70-29.79L52.70-29.79L52.70-29.79Q55.68-26.94 55.68-21.89L55.68-21.89L55.68-13.57L36.22-12.48L36.22-8.58L36.22-8.58Q36.22-5.50 38.21-3.97L38.21-3.97L38.21-3.97Q40.19-2.43 43.39-2.43L43.39-2.43L43.39-2.43Q47.87-2.43 52.67-4.99L52.67-4.99L54.08-2.24ZM52.10-22.34L52.10-22.34Q52.10-26.30 49.60-27.94L49.60-27.94L49.60-27.94Q47.10-29.57 44.35-29.57L44.35-29.57L44.35-29.57Q40.83-29.57 38.53-27.65L38.53-27.65L38.53-27.65Q36.22-25.73 36.22-21.63L36.22-21.63L36.22-16L52.10-16.77L52.10-22.34ZM76.86 10.69L76.86 10.69Q81.15 9.09 81.15 4.03L81.15 4.03L81.15-3.14L81.15-3.14Q79.94-1.09 77.50-0.16L77.50-0.16L77.50-0.16Q75.07 0.77 72.26 0.77L72.26 0.77L72.26 0.77Q66.62 0.77 63.58-2.27L63.58-2.27L63.58-2.27Q60.54-5.31 60.54-11.26L60.54-11.26L60.54-32.06L64-32.06L64-10.62L64-10.62Q64-6.53 66.24-4.51L66.24-4.51L66.24-4.51Q68.48-2.50 72.26-2.50L72.26-2.50L72.26-2.50Q76.22-2.50 78.66-4.48L78.66-4.48L78.66-4.48Q81.09-6.46 81.09-10.62L81.09-10.62L81.09-23.23L81.09-23.23Q81.09-26.30 81.28-27.81L81.28-27.81L81.28-27.81Q81.47-29.31 82.46-30.62L82.46-30.62L82.46-30.62Q83.46-31.94 85.76-32.64L85.76-32.64L86.72-30.21L86.72-30.21Q84.54-29.25 84.54-25.73L84.54-25.73L84.54 3.90L84.54 3.90Q84.54 7.81 83.01 10.05L83.01 10.05L83.01 10.05Q81.47 12.29 77.82 13.44L77.82 13.44L76.86 10.69ZM129.60-0.38L129.60-0.38Q125.63 0.64 121.92 0.64L121.92 0.64L121.92 0.64Q118.46 0.64 116.16-0.13L116.16-0.13L116.16-0.13Q112.38-1.41 110.69-4.06L110.69-4.06L110.69-4.06Q108.99-6.72 108.99-11.52L108.99-11.52L108.99-19.71L108.99-19.71Q108.99-26.05 112.32-29.34L112.32-29.34L112.32-29.34Q115.65-32.64 120.90-32.64L120.90-32.64L120.90-32.64Q125.06-32.64 129.47-30.59L129.47-30.59L128.45-27.97L128.45-27.97Q124.80-29.44 121.41-29.44L121.41-29.44L121.41-29.44Q117.44-29.44 115.01-27.17L115.01-27.17L115.01-27.17Q112.58-24.90 112.58-20.10L112.58-20.10L112.58-10.82L112.58-10.82Q112.58-6.40 115.23-4.42L115.23-4.42L115.23-4.42Q117.89-2.43 122.30-2.43L122.30-2.43L122.30-2.43Q125.18-2.43 128.83-3.26L128.83-3.26L129.60-0.38ZM155.39 0L155.39-21.95L155.39-21.95Q155.39-25.86 153.12-27.62L153.12-27.62L153.12-27.62Q150.85-29.38 147.26-29.38L147.26-29.38L147.26-29.38Q145.09-29.38 142.85-28.77L142.85-28.77L142.85-28.77Q140.61-28.16 138.88-27.20L138.88-27.20L138.88 0L135.30 0L135.30-44.80L138.88-44.80L138.88-30.34L138.88-30.34Q140.48-31.42 142.72-32.03L142.72-32.03L142.72-32.03Q144.96-32.64 147.39-32.64L147.39-32.64L147.39-32.64Q150.72-32.64 153.47-31.42L153.47-31.42L153.47-31.42Q156.03-30.27 157.47-27.97L157.47-27.97L157.47-27.97Q158.91-25.66 158.91-22.14L158.91-22.14L158.91 0L155.39 0ZM186.43-2.24L186.43-2.24Q184.13-0.77 181.18 0L181.18 0L181.18 0Q178.24 0.77 175.30 0.77L175.30 0.77L175.30 0.77Q170.56 0.77 167.78-1.57L167.78-1.57L167.78-1.57Q164.99-3.90 164.99-8.58L164.99-8.58L164.99-21.70L164.99-21.70Q164.99-26.88 168.22-29.76L168.22-29.76L168.22-29.76Q171.46-32.64 176.77-32.64L176.77-32.64L176.77-32.64Q182.08-32.64 185.06-29.79L185.06-29.79L185.06-29.79Q188.03-26.94 188.03-21.89L188.03-21.89L188.03-13.57L168.58-12.48L168.58-8.58L168.58-8.58Q168.58-5.50 170.56-3.97L170.56-3.97L170.56-3.97Q172.54-2.43 175.74-2.43L175.74-2.43L175.74-2.43Q180.22-2.43 185.02-4.99L185.02-4.99L186.43-2.24ZM184.45-22.34L184.45-22.34Q184.45-26.30 181.95-27.94L181.95-27.94L181.95-27.94Q179.46-29.57 176.70-29.57L176.70-29.57L176.70-29.57Q173.18-29.57 170.88-27.65L170.88-27.65L170.88-27.65Q168.58-25.73 168.58-21.63L168.58-21.63L168.58-16L184.45-16.77L184.45-22.34ZM213.44-0.38L213.44-0.38Q209.47 0.64 205.76 0.64L205.76 0.64L205.76 0.64Q202.30 0.64 200-0.13L200-0.13L200-0.13Q196.22-1.41 194.53-4.06L194.53-4.06L194.53-4.06Q192.83-6.72 192.83-11.52L192.83-11.52L192.83-19.71L192.83-19.71Q192.83-26.05 196.16-29.34L196.16-29.34L196.16-29.34Q199.49-32.64 204.74-32.64L204.74-32.64L204.74-32.64Q208.90-32.64 213.31-30.59L213.31-30.59L212.29-27.97L212.29-27.97Q208.64-29.44 205.25-29.44L205.25-29.44L205.25-29.44Q201.28-29.44 198.85-27.17L198.85-27.17L198.85-27.17Q196.42-24.90 196.42-20.10L196.42-20.10L196.42-10.82L196.42-10.82Q196.42-6.40 199.07-4.42L199.07-4.42L199.07-4.42Q201.73-2.43 206.14-2.43L206.14-2.43L206.14-2.43Q209.02-2.43 212.67-3.26L212.67-3.26L213.44-0.38ZM238.53 0L226.24-20.29L222.91-17.41L222.91 0L219.33 0L219.33-44.80L222.91-44.80L222.91-21.44L235.71-33.28L238.27-30.78L228.80-22.53L228.80-22.53Q233.15-15.30 242.82 0L242.82 0L238.53 0ZM266.50-2.24L266.50-2.24Q264.19-0.77 261.25 0L261.25 0L261.25 0Q258.30 0.77 255.36 0.77L255.36 0.77L255.36 0.77Q250.62 0.77 247.84-1.57L247.84-1.57L247.84-1.57Q245.06-3.90 245.06-8.58L245.06-8.58L245.06-21.70L245.06-21.70Q245.06-26.88 248.29-29.76L248.29-29.76L248.29-29.76Q251.52-32.64 256.83-32.64L256.83-32.64L256.83-32.64Q262.14-32.64 265.12-29.79L265.12-29.79L265.12-29.79Q268.10-26.94 268.10-21.89L268.10-21.89L268.10-13.57L248.64-12.48L248.64-8.58L248.64-8.58Q248.64-5.50 250.62-3.97L250.62-3.97L250.62-3.97Q252.61-2.43 255.81-2.43L255.81-2.43L255.81-2.43Q260.29-2.43 265.09-4.99L265.09-4.99L266.50-2.24ZM264.51-22.34L264.51-22.34Q264.51-26.30 262.02-27.94L262.02-27.94L262.02-27.94Q259.52-29.57 256.77-29.57L256.77-29.57L256.77-29.57Q253.25-29.57 250.94-27.65L250.94-27.65L250.94-27.65Q248.64-25.73 248.64-21.63L248.64-21.63L248.64-16L264.51-16.77L264.51-22.34ZM274.50 0L274.50-32.06L278.08-32.06L277.89-29.82L277.89-29.82Q280.90-32.64 285.76-32.64L285.76-32.64L285.76-32.64Q287.49-32.64 290.50-32.06L290.50-32.06L289.54-28.80L289.54-28.80Q287.49-29.44 285.25-29.44L285.25-29.44L285.25-29.44Q282.30-29.44 280.19-28.35L280.19-28.35L280.19-28.35Q278.08-27.26 278.08-25.09L278.08-25.09L278.08 0L274.50 0Z" fill="#ce9c70"></path></g></g><style>text {
  font-size: 64px;
  font-family: Arial Black;
  dominant-baseline: central;
  text-anchor: middle;
}</style></svg>